<svg id="Icon_Close_Circle_32px" data-name="Icon Close Circle 32px" xmlns="http://www.w3.org/2000/svg" width="32" height="32" viewBox="0 0 32 32">
  <g id="Path_49" data-name="Path 49" transform="translate(-280 -88)" fill="none" stroke-miterlimit="10">
    <path d="M296,90a14,14,0,1,0,14,14A14,14,0,0,0,296,90Zm6.707,19.293-1.414,1.414L296,105.414l-5.293,5.293-1.414-1.414L294.586,104l-5.293-5.293,1.414-1.414L296,102.586l5.293-5.293,1.414,1.414L297.414,104Z" stroke="none"/>
    <path d="M 296 90 C 303.7319946289062 90 310 96.26799774169922 310 104 C 310 111.7320022583008 303.7319946289062 118 296 118 C 288.2680053710938 118 282 111.7320022583008 282 104 C 282 96.26799774169922 288.2680053710938 90 296 90 Z M 296 102.5859985351562 L 290.7070007324219 97.29299926757812 L 289.2929992675781 98.70700073242188 L 294.5859985351562 104 L 289.2929992675781 109.2929992675781 L 290.7070007324219 110.7070007324219 L 296 105.4140014648438 L 301.2929992675781 110.7070007324219 L 302.7070007324219 109.2929992675781 L 297.4140014648438 104 L 302.7070007324219 98.70700073242188 L 301.2929992675781 97.29299926757812 L 296 102.5859985351562 Z" stroke="none" fill="#666"/>
  </g>
  <g id="Container" fill="none" stroke="#666" stroke-width="2" opacity="0">
    <rect width="32" height="32" stroke="none"/>
    <rect x="1" y="1" width="30" height="30" fill="none"/>
  </g>
</svg>